<svg xmlns="http://www.w3.org/2000/svg" xmlns:rdkit="http://www.rdkit.org/xml" xmlns:xlink="http://www.w3.org/1999/xlink" version="1.1" baseProfile="full" xml:space="preserve" width="800px" height="1200px" viewBox="0 0 800 1200">
<!-- END OF HEADER -->
<rect style="opacity:1.0;fill:#FFFFFF;stroke:none" width="800.0" height="1200.0" x="0.0" y="0.0"> </rect>
<path class="bond-0 atom-0 atom-1" d="M 301.2,204.9 L 270.2,204.9" style="fill:none;fill-rule:evenodd;stroke:#191919;stroke-width:2.0px;stroke-linecap:butt;stroke-linejoin:miter;stroke-opacity:1"/>
<path class="bond-0 atom-0 atom-1" d="M 270.2,204.9 L 239.1,204.9" style="fill:none;fill-rule:evenodd;stroke:#000000;stroke-width:2.0px;stroke-linecap:butt;stroke-linejoin:miter;stroke-opacity:1"/>
<path class="bond-1 atom-1 atom-2" d="M 239.1,204.9 L 198.6,149.1" style="fill:none;fill-rule:evenodd;stroke:#000000;stroke-width:2.0px;stroke-linecap:butt;stroke-linejoin:miter;stroke-opacity:1"/>
<path class="bond-2 atom-2 atom-3" d="M 198.6,149.1 L 176.7,156.2" style="fill:none;fill-rule:evenodd;stroke:#000000;stroke-width:2.0px;stroke-linecap:butt;stroke-linejoin:miter;stroke-opacity:1"/>
<path class="bond-2 atom-2 atom-3" d="M 176.7,156.2 L 154.9,163.3" style="fill:none;fill-rule:evenodd;stroke:#0000FF;stroke-width:2.0px;stroke-linecap:butt;stroke-linejoin:miter;stroke-opacity:1"/>
<path class="bond-2 atom-2 atom-3" d="M 194.7,161.3 L 176.4,167.2" style="fill:none;fill-rule:evenodd;stroke:#000000;stroke-width:2.0px;stroke-linecap:butt;stroke-linejoin:miter;stroke-opacity:1"/>
<path class="bond-2 atom-2 atom-3" d="M 176.4,167.2 L 158.1,173.2" style="fill:none;fill-rule:evenodd;stroke:#0000FF;stroke-width:2.0px;stroke-linecap:butt;stroke-linejoin:miter;stroke-opacity:1"/>
<path class="bond-3 atom-3 atom-4" d="M 123.3,163.4 L 105.9,150.7" style="fill:none;fill-rule:evenodd;stroke:#0000FF;stroke-width:2.0px;stroke-linecap:butt;stroke-linejoin:miter;stroke-opacity:1"/>
<path class="bond-3 atom-3 atom-4" d="M 105.9,150.7 L 88.4,138.1" style="fill:none;fill-rule:evenodd;stroke:#FF0000;stroke-width:2.0px;stroke-linecap:butt;stroke-linejoin:miter;stroke-opacity:1"/>
<path class="bond-4 atom-3 atom-5" d="M 133.0,182.5 L 133.0,227.4" style="fill:none;fill-rule:evenodd;stroke:#0000FF;stroke-width:2.0px;stroke-linecap:butt;stroke-linejoin:miter;stroke-opacity:1"/>
<path class="bond-5 atom-5 atom-6" d="M 123.3,246.5 L 100.3,263.2" style="fill:none;fill-rule:evenodd;stroke:#0000FF;stroke-width:2.0px;stroke-linecap:butt;stroke-linejoin:miter;stroke-opacity:1"/>
<path class="bond-5 atom-5 atom-6" d="M 100.3,263.2 L 77.2,280.0" style="fill:none;fill-rule:evenodd;stroke:#000000;stroke-width:2.0px;stroke-linecap:butt;stroke-linejoin:miter;stroke-opacity:1"/>
<path class="bond-6 atom-5 atom-7" d="M 142.7,242.6 L 188.9,257.6" style="fill:none;fill-rule:evenodd;stroke:#0000FF;stroke-width:2.0px;stroke-linecap:butt;stroke-linejoin:miter;stroke-opacity:1"/>
<path class="bond-7 atom-7 atom-1" d="M 207.4,248.7 L 223.3,226.8" style="fill:none;fill-rule:evenodd;stroke:#0000FF;stroke-width:2.0px;stroke-linecap:butt;stroke-linejoin:miter;stroke-opacity:1"/>
<path class="bond-7 atom-7 atom-1" d="M 223.3,226.8 L 239.1,204.9" style="fill:none;fill-rule:evenodd;stroke:#000000;stroke-width:2.0px;stroke-linecap:butt;stroke-linejoin:miter;stroke-opacity:1"/>
<path class="bond-7 atom-7 atom-1" d="M 199.0,242.6 L 212.7,223.8" style="fill:none;fill-rule:evenodd;stroke:#0000FF;stroke-width:2.0px;stroke-linecap:butt;stroke-linejoin:miter;stroke-opacity:1"/>
<path class="bond-7 atom-7 atom-1" d="M 212.7,223.8 L 226.4,204.9" style="fill:none;fill-rule:evenodd;stroke:#000000;stroke-width:2.0px;stroke-linecap:butt;stroke-linejoin:miter;stroke-opacity:1"/>
<path d="M 200.6,151.9 L 198.6,149.1 L 197.5,149.5" style="fill:none;stroke:#000000;stroke-width:2.0px;stroke-linecap:butt;stroke-linejoin:miter;stroke-opacity:1;"/>
<path class="atom-0" d="M 304.4 202.8 L 307.3 199.8 L 303.5 199.1 L 304.1 197.1 L 307.6 198.9 L 307.1 195.0 L 309.2 195.0 L 308.6 198.8 L 312.1 197.2 L 312.7 199.1 L 308.9 199.8 L 311.6 202.7 L 310.0 203.9 L 308.1 200.3 L 306.1 203.9 L 304.4 202.8 " fill="#191919"/>
<path class="atom-0" d="M 314.4 211.6 L 317.1 211.6 L 317.1 214.4 L 314.4 214.4 L 314.4 211.6 M 314.4 202.2 L 317.1 202.2 L 317.1 204.9 L 314.4 204.9 L 314.4 202.2 " fill="#191919"/>
<path class="atom-0" d="M 321.1 212.7 L 325.3 212.7 L 325.3 198.1 L 320.6 199.5 L 320.0 197.9 L 326.0 195.2 L 327.9 195.6 L 327.9 212.7 L 331.8 212.7 L 331.8 214.9 L 321.1 214.9 L 321.1 212.7 " fill="#191919"/>
<path class="atom-3" d="M 128.7 160.7 L 135.1 171.0 Q 135.7 172.1, 136.7 173.9 Q 137.8 175.7, 137.8 175.9 L 137.8 160.7 L 140.4 160.7 L 140.4 180.2 L 137.7 180.2 L 130.9 168.9 Q 130.1 167.6, 129.2 166.1 Q 128.4 164.5, 128.1 164.1 L 128.1 180.2 L 125.6 180.2 L 125.6 160.7 L 128.7 160.7 " fill="#0000FF"/>
<path class="atom-3" d="M 144.1 164.2 L 147.5 164.2 L 147.5 160.6 L 149.1 160.6 L 149.1 164.2 L 152.6 164.2 L 152.6 165.5 L 149.1 165.5 L 149.1 169.2 L 147.5 169.2 L 147.5 165.5 L 144.1 165.5 L 144.1 164.2 " fill="#0000FF"/>
<path class="atom-4" d="M 68.2 130.0 Q 68.2 125.3, 70.5 122.7 Q 72.9 120.0, 77.2 120.0 Q 81.5 120.0, 83.8 122.7 Q 86.2 125.3, 86.2 130.0 Q 86.2 134.7, 83.8 137.4 Q 81.5 140.1, 77.2 140.1 Q 72.9 140.1, 70.5 137.4 Q 68.2 134.7, 68.2 130.0 M 77.2 137.9 Q 80.2 137.9, 81.8 135.9 Q 83.4 133.9, 83.4 130.0 Q 83.4 126.1, 81.8 124.2 Q 80.2 122.2, 77.2 122.2 Q 74.2 122.2, 72.6 124.2 Q 71.0 126.1, 71.0 130.0 Q 71.0 133.9, 72.6 135.9 Q 74.2 137.9, 77.2 137.9 " fill="#FF0000"/>
<path class="atom-4" d="M 88.9 123.2 L 95.6 123.2 L 95.6 124.7 L 88.9 124.7 L 88.9 123.2 " fill="#FF0000"/>
<path class="atom-5" d="M 128.7 229.7 L 135.1 240.0 Q 135.7 241.0, 136.7 242.9 Q 137.8 244.7, 137.8 244.8 L 137.8 229.7 L 140.4 229.7 L 140.4 249.2 L 137.7 249.2 L 130.9 237.9 Q 130.1 236.6, 129.2 235.0 Q 128.4 233.5, 128.1 233.1 L 128.1 249.2 L 125.6 249.2 L 125.6 229.7 L 128.7 229.7 " fill="#0000FF"/>
<path class="atom-7" d="M 194.3 251.0 L 200.7 261.3 Q 201.3 262.3, 202.3 264.2 Q 203.4 266.0, 203.4 266.1 L 203.4 251.0 L 206.0 251.0 L 206.0 270.5 L 203.3 270.5 L 196.5 259.2 Q 195.7 257.9, 194.8 256.4 Q 194.0 254.8, 193.7 254.4 L 193.7 270.5 L 191.2 270.5 L 191.2 251.0 L 194.3 251.0 " fill="#0000FF"/>
<path class="bond-0 atom-0 atom-1" d="M 685.0,277.4 L 667.1,254.7" style="fill:none;fill-rule:evenodd;stroke:#191919;stroke-width:2.0px;stroke-linecap:butt;stroke-linejoin:miter;stroke-opacity:1"/>
<path class="bond-0 atom-0 atom-1" d="M 667.1,254.7 L 649.2,232.0" style="fill:none;fill-rule:evenodd;stroke:#000000;stroke-width:2.0px;stroke-linecap:butt;stroke-linejoin:miter;stroke-opacity:1"/>
<path class="bond-1 atom-1 atom-2" d="M 649.2,232.0 L 580.9,241.9" style="fill:none;fill-rule:evenodd;stroke:#000000;stroke-width:2.0px;stroke-linecap:butt;stroke-linejoin:miter;stroke-opacity:1"/>
<path class="bond-1 atom-1 atom-2" d="M 641.8,222.6 L 585.3,230.8" style="fill:none;fill-rule:evenodd;stroke:#000000;stroke-width:2.0px;stroke-linecap:butt;stroke-linejoin:miter;stroke-opacity:1"/>
<path class="bond-2 atom-2 atom-3" d="M 580.9,241.9 L 538.2,187.8" style="fill:none;fill-rule:evenodd;stroke:#000000;stroke-width:2.0px;stroke-linecap:butt;stroke-linejoin:miter;stroke-opacity:1"/>
<path class="bond-3 atom-3 atom-4" d="M 538.2,187.8 L 515.0,191.2" style="fill:none;fill-rule:evenodd;stroke:#000000;stroke-width:2.0px;stroke-linecap:butt;stroke-linejoin:miter;stroke-opacity:1"/>
<path class="bond-3 atom-3 atom-4" d="M 515.0,191.2 L 491.8,194.6" style="fill:none;fill-rule:evenodd;stroke:#0000FF;stroke-width:2.0px;stroke-linecap:butt;stroke-linejoin:miter;stroke-opacity:1"/>
<path class="bond-4 atom-4 atom-5" d="M 460.3,207.9 L 452.4,227.9" style="fill:none;fill-rule:evenodd;stroke:#0000FF;stroke-width:2.0px;stroke-linecap:butt;stroke-linejoin:miter;stroke-opacity:1"/>
<path class="bond-4 atom-4 atom-5" d="M 452.4,227.9 L 444.4,247.8" style="fill:none;fill-rule:evenodd;stroke:#FF0000;stroke-width:2.0px;stroke-linecap:butt;stroke-linejoin:miter;stroke-opacity:1"/>
<path class="bond-4 atom-4 atom-5" d="M 469.9,211.7 L 462.0,231.7" style="fill:none;fill-rule:evenodd;stroke:#0000FF;stroke-width:2.0px;stroke-linecap:butt;stroke-linejoin:miter;stroke-opacity:1"/>
<path class="bond-4 atom-4 atom-5" d="M 462.0,231.7 L 454.1,251.6" style="fill:none;fill-rule:evenodd;stroke:#FF0000;stroke-width:2.0px;stroke-linecap:butt;stroke-linejoin:miter;stroke-opacity:1"/>
<path class="bond-5 atom-4 atom-6" d="M 460.4,185.7 L 448.7,170.9" style="fill:none;fill-rule:evenodd;stroke:#0000FF;stroke-width:2.0px;stroke-linecap:butt;stroke-linejoin:miter;stroke-opacity:1"/>
<path class="bond-5 atom-4 atom-6" d="M 448.7,170.9 L 437.0,156.1" style="fill:none;fill-rule:evenodd;stroke:#FF0000;stroke-width:2.0px;stroke-linecap:butt;stroke-linejoin:miter;stroke-opacity:1"/>
<path class="bond-6 atom-3 atom-7" d="M 538.2,187.8 L 563.7,123.7" style="fill:none;fill-rule:evenodd;stroke:#000000;stroke-width:2.0px;stroke-linecap:butt;stroke-linejoin:miter;stroke-opacity:1"/>
<path class="bond-6 atom-3 atom-7" d="M 550.0,186.1 L 571.1,133.1" style="fill:none;fill-rule:evenodd;stroke:#000000;stroke-width:2.0px;stroke-linecap:butt;stroke-linejoin:miter;stroke-opacity:1"/>
<path class="bond-7 atom-7 atom-8" d="M 563.7,123.7 L 592.9,119.4" style="fill:none;fill-rule:evenodd;stroke:#000000;stroke-width:2.0px;stroke-linecap:butt;stroke-linejoin:miter;stroke-opacity:1"/>
<path class="bond-7 atom-7 atom-8" d="M 592.9,119.4 L 622.2,115.2" style="fill:none;fill-rule:evenodd;stroke:#0000FF;stroke-width:2.0px;stroke-linecap:butt;stroke-linejoin:miter;stroke-opacity:1"/>
<path class="bond-8 atom-8 atom-9" d="M 641.4,125.8 L 658.0,146.8" style="fill:none;fill-rule:evenodd;stroke:#0000FF;stroke-width:2.0px;stroke-linecap:butt;stroke-linejoin:miter;stroke-opacity:1"/>
<path class="bond-8 atom-8 atom-9" d="M 658.0,146.8 L 674.7,167.9" style="fill:none;fill-rule:evenodd;stroke:#000000;stroke-width:2.0px;stroke-linecap:butt;stroke-linejoin:miter;stroke-opacity:1"/>
<path class="bond-8 atom-8 atom-9" d="M 633.3,132.2 L 648.1,150.9" style="fill:none;fill-rule:evenodd;stroke:#0000FF;stroke-width:2.0px;stroke-linecap:butt;stroke-linejoin:miter;stroke-opacity:1"/>
<path class="bond-8 atom-8 atom-9" d="M 648.1,150.9 L 662.8,169.6" style="fill:none;fill-rule:evenodd;stroke:#000000;stroke-width:2.0px;stroke-linecap:butt;stroke-linejoin:miter;stroke-opacity:1"/>
<path class="bond-9 atom-9 atom-10" d="M 674.7,167.9 L 704.0,163.6" style="fill:none;fill-rule:evenodd;stroke:#000000;stroke-width:2.0px;stroke-linecap:butt;stroke-linejoin:miter;stroke-opacity:1"/>
<path class="bond-9 atom-9 atom-10" d="M 704.0,163.6 L 733.2,159.3" style="fill:none;fill-rule:evenodd;stroke:#0000FF;stroke-width:2.0px;stroke-linecap:butt;stroke-linejoin:miter;stroke-opacity:1"/>
<path class="bond-10 atom-9 atom-1" d="M 674.7,167.9 L 649.2,232.0" style="fill:none;fill-rule:evenodd;stroke:#000000;stroke-width:2.0px;stroke-linecap:butt;stroke-linejoin:miter;stroke-opacity:1"/>
<path d="M 584.3,241.4 L 580.9,241.9 L 578.8,239.2" style="fill:none;stroke:#000000;stroke-width:2.0px;stroke-linecap:butt;stroke-linejoin:miter;stroke-opacity:1;"/>
<path d="M 562.4,126.9 L 563.7,123.7 L 565.1,123.5" style="fill:none;stroke:#000000;stroke-width:2.0px;stroke-linecap:butt;stroke-linejoin:miter;stroke-opacity:1;"/>
<path class="atom-0" d="M 688.3 283.9 L 691.1 281.0 L 687.3 280.2 L 687.9 278.2 L 691.4 280.0 L 690.9 276.2 L 693.0 276.2 L 692.4 280.0 L 696.0 278.3 L 696.6 280.2 L 692.7 280.9 L 695.5 283.9 L 693.8 285.1 L 691.9 281.5 L 689.9 285.1 L 688.3 283.9 " fill="#191919"/>
<path class="atom-0" d="M 698.2 292.8 L 700.9 292.8 L 700.9 295.5 L 698.2 295.5 L 698.2 292.8 M 698.2 283.3 L 700.9 283.3 L 700.9 286.1 L 698.2 286.1 L 698.2 283.3 " fill="#191919"/>
<path class="atom-0" d="M 704.9 293.8 L 709.2 293.8 L 709.2 279.2 L 704.4 280.7 L 703.8 279.1 L 709.8 276.4 L 711.8 276.7 L 711.8 293.8 L 715.6 293.8 L 715.6 296.0 L 704.9 296.0 L 704.9 293.8 " fill="#191919"/>
<path class="atom-4" d="M 465.6 188.0 L 472.0 198.4 Q 472.6 199.4, 473.7 201.2 Q 474.7 203.1, 474.7 203.2 L 474.7 188.0 L 477.3 188.0 L 477.3 207.6 L 474.6 207.6 L 467.8 196.2 Q 467.0 194.9, 466.1 193.4 Q 465.3 191.9, 465.0 191.4 L 465.0 207.6 L 462.5 207.6 L 462.5 188.0 L 465.6 188.0 " fill="#0000FF"/>
<path class="atom-4" d="M 481.0 191.5 L 484.4 191.5 L 484.4 187.9 L 486.0 187.9 L 486.0 191.5 L 489.5 191.5 L 489.5 192.9 L 486.0 192.9 L 486.0 196.5 L 484.4 196.5 L 484.4 192.9 L 481.0 192.9 L 481.0 191.5 " fill="#0000FF"/>
<path class="atom-5" d="M 435.5 261.9 Q 435.5 257.2, 437.8 254.6 Q 440.1 252.0, 444.4 252.0 Q 448.8 252.0, 451.1 254.6 Q 453.4 257.2, 453.4 261.9 Q 453.4 266.7, 451.0 269.4 Q 448.7 272.1, 444.4 272.1 Q 440.1 272.1, 437.8 269.4 Q 435.5 266.7, 435.5 261.9 M 444.4 269.9 Q 447.4 269.9, 449.0 267.9 Q 450.6 265.9, 450.6 261.9 Q 450.6 258.1, 449.0 256.2 Q 447.4 254.2, 444.4 254.2 Q 441.4 254.2, 439.8 256.1 Q 438.2 258.1, 438.2 261.9 Q 438.2 265.9, 439.8 267.9 Q 441.4 269.9, 444.4 269.9 " fill="#FF0000"/>
<path class="atom-6" d="M 418.2 143.7 Q 418.2 139.0, 420.5 136.4 Q 422.8 133.8, 427.1 133.8 Q 431.5 133.8, 433.8 136.4 Q 436.1 139.0, 436.1 143.7 Q 436.1 148.5, 433.8 151.2 Q 431.4 153.8, 427.1 153.8 Q 422.8 153.8, 420.5 151.2 Q 418.2 148.5, 418.2 143.7 M 427.1 151.6 Q 430.1 151.6, 431.7 149.7 Q 433.4 147.6, 433.4 143.7 Q 433.4 139.9, 431.7 138.0 Q 430.1 136.0, 427.1 136.0 Q 424.2 136.0, 422.5 137.9 Q 420.9 139.9, 420.9 143.7 Q 420.9 147.7, 422.5 149.7 Q 424.2 151.6, 427.1 151.6 " fill="#FF0000"/>
<path class="atom-6" d="M 438.9 137.0 L 445.6 137.0 L 445.6 138.4 L 438.9 138.4 L 438.9 137.0 " fill="#FF0000"/>
<path class="atom-8" d="M 627.6 104.0 L 634.0 114.3 Q 634.6 115.3, 635.6 117.2 Q 636.7 119.0, 636.7 119.2 L 636.7 104.0 L 639.3 104.0 L 639.3 123.5 L 636.6 123.5 L 629.8 112.2 Q 629.0 110.9, 628.1 109.4 Q 627.3 107.8, 627.0 107.4 L 627.0 123.5 L 624.5 123.5 L 624.5 104.0 L 627.6 104.0 " fill="#0000FF"/>
<path class="atom-10" d="M 738.6 148.1 L 745.0 158.5 Q 745.6 159.5, 746.7 161.3 Q 747.7 163.2, 747.7 163.3 L 747.7 148.1 L 750.3 148.1 L 750.3 167.7 L 747.7 167.7 L 740.8 156.4 Q 740.0 155.0, 739.1 153.5 Q 738.3 152.0, 738.0 151.5 L 738.0 167.7 L 735.5 167.7 L 735.5 148.1 L 738.6 148.1 " fill="#0000FF"/>
<path class="atom-10" d="M 754.1 148.1 L 756.7 148.1 L 756.7 156.4 L 766.7 156.4 L 766.7 148.1 L 769.3 148.1 L 769.3 167.7 L 766.7 167.7 L 766.7 158.6 L 756.7 158.6 L 756.7 167.7 L 754.1 167.7 L 754.1 148.1 " fill="#0000FF"/>
<path class="atom-10" d="M 773.2 167.0 Q 773.6 165.8, 774.8 165.1 Q 775.9 164.4, 777.5 164.4 Q 779.4 164.4, 780.5 165.4 Q 781.6 166.5, 781.6 168.4 Q 781.6 170.3, 780.2 172.1 Q 778.8 173.9, 775.9 176.0 L 781.8 176.0 L 781.8 177.4 L 773.1 177.4 L 773.1 176.2 Q 775.5 174.5, 777.0 173.2 Q 778.4 171.9, 779.1 170.8 Q 779.8 169.7, 779.8 168.5 Q 779.8 167.2, 779.2 166.5 Q 778.5 165.8, 777.5 165.8 Q 776.4 165.8, 775.7 166.3 Q 775.0 166.7, 774.6 167.6 L 773.2 167.0 " fill="#0000FF"/>
<path class="bond-0 atom-0 atom-1" d="M 301.2,604.9 L 270.2,604.9" style="fill:none;fill-rule:evenodd;stroke:#191919;stroke-width:2.0px;stroke-linecap:butt;stroke-linejoin:miter;stroke-opacity:1"/>
<path class="bond-0 atom-0 atom-1" d="M 270.2,604.9 L 239.1,604.9" style="fill:none;fill-rule:evenodd;stroke:#000000;stroke-width:2.0px;stroke-linecap:butt;stroke-linejoin:miter;stroke-opacity:1"/>
<path class="bond-1 atom-1 atom-2" d="M 239.1,604.9 L 198.6,549.1" style="fill:none;fill-rule:evenodd;stroke:#000000;stroke-width:2.0px;stroke-linecap:butt;stroke-linejoin:miter;stroke-opacity:1"/>
<path class="bond-2 atom-2 atom-3" d="M 198.6,549.1 L 176.7,556.2" style="fill:none;fill-rule:evenodd;stroke:#000000;stroke-width:2.0px;stroke-linecap:butt;stroke-linejoin:miter;stroke-opacity:1"/>
<path class="bond-2 atom-2 atom-3" d="M 176.7,556.2 L 154.9,563.3" style="fill:none;fill-rule:evenodd;stroke:#0000FF;stroke-width:2.0px;stroke-linecap:butt;stroke-linejoin:miter;stroke-opacity:1"/>
<path class="bond-2 atom-2 atom-3" d="M 194.7,561.3 L 176.4,567.2" style="fill:none;fill-rule:evenodd;stroke:#000000;stroke-width:2.0px;stroke-linecap:butt;stroke-linejoin:miter;stroke-opacity:1"/>
<path class="bond-2 atom-2 atom-3" d="M 176.4,567.2 L 158.1,573.2" style="fill:none;fill-rule:evenodd;stroke:#0000FF;stroke-width:2.0px;stroke-linecap:butt;stroke-linejoin:miter;stroke-opacity:1"/>
<path class="bond-3 atom-3 atom-4" d="M 123.3,563.4 L 105.9,550.7" style="fill:none;fill-rule:evenodd;stroke:#0000FF;stroke-width:2.0px;stroke-linecap:butt;stroke-linejoin:miter;stroke-opacity:1"/>
<path class="bond-3 atom-3 atom-4" d="M 105.9,550.7 L 88.4,538.1" style="fill:none;fill-rule:evenodd;stroke:#FF0000;stroke-width:2.0px;stroke-linecap:butt;stroke-linejoin:miter;stroke-opacity:1"/>
<path class="bond-4 atom-3 atom-5" d="M 133.0,582.5 L 133.0,627.4" style="fill:none;fill-rule:evenodd;stroke:#0000FF;stroke-width:2.0px;stroke-linecap:butt;stroke-linejoin:miter;stroke-opacity:1"/>
<path class="bond-5 atom-5 atom-6" d="M 123.3,646.5 L 100.3,663.2" style="fill:none;fill-rule:evenodd;stroke:#0000FF;stroke-width:2.0px;stroke-linecap:butt;stroke-linejoin:miter;stroke-opacity:1"/>
<path class="bond-5 atom-5 atom-6" d="M 100.3,663.2 L 77.2,680.0" style="fill:none;fill-rule:evenodd;stroke:#000000;stroke-width:2.0px;stroke-linecap:butt;stroke-linejoin:miter;stroke-opacity:1"/>
<path class="bond-6 atom-5 atom-7" d="M 142.7,642.6 L 188.9,657.6" style="fill:none;fill-rule:evenodd;stroke:#0000FF;stroke-width:2.0px;stroke-linecap:butt;stroke-linejoin:miter;stroke-opacity:1"/>
<path class="bond-7 atom-7 atom-1" d="M 207.4,648.7 L 223.3,626.8" style="fill:none;fill-rule:evenodd;stroke:#0000FF;stroke-width:2.0px;stroke-linecap:butt;stroke-linejoin:miter;stroke-opacity:1"/>
<path class="bond-7 atom-7 atom-1" d="M 223.3,626.8 L 239.1,604.9" style="fill:none;fill-rule:evenodd;stroke:#000000;stroke-width:2.0px;stroke-linecap:butt;stroke-linejoin:miter;stroke-opacity:1"/>
<path class="bond-7 atom-7 atom-1" d="M 199.0,642.6 L 212.7,623.8" style="fill:none;fill-rule:evenodd;stroke:#0000FF;stroke-width:2.0px;stroke-linecap:butt;stroke-linejoin:miter;stroke-opacity:1"/>
<path class="bond-7 atom-7 atom-1" d="M 212.7,623.8 L 226.4,604.9" style="fill:none;fill-rule:evenodd;stroke:#000000;stroke-width:2.0px;stroke-linecap:butt;stroke-linejoin:miter;stroke-opacity:1"/>
<path d="M 200.6,551.9 L 198.6,549.1 L 197.5,549.5" style="fill:none;stroke:#000000;stroke-width:2.0px;stroke-linecap:butt;stroke-linejoin:miter;stroke-opacity:1;"/>
<path class="atom-0" d="M 304.4 602.8 L 307.3 599.8 L 303.5 599.1 L 304.1 597.1 L 307.6 598.9 L 307.1 595.0 L 309.2 595.0 L 308.6 598.8 L 312.1 597.2 L 312.7 599.1 L 308.9 599.8 L 311.6 602.7 L 310.0 603.9 L 308.1 600.3 L 306.1 603.9 L 304.4 602.8 " fill="#191919"/>
<path class="atom-0" d="M 314.4 611.6 L 317.1 611.6 L 317.1 614.4 L 314.4 614.4 L 314.4 611.6 M 314.4 602.2 L 317.1 602.2 L 317.1 604.9 L 314.4 604.9 L 314.4 602.2 " fill="#191919"/>
<path class="atom-0" d="M 321.1 612.7 L 325.3 612.7 L 325.3 598.1 L 320.6 599.5 L 320.0 597.9 L 326.0 595.2 L 327.9 595.6 L 327.9 612.7 L 331.8 612.7 L 331.8 614.9 L 321.1 614.9 L 321.1 612.7 " fill="#191919"/>
<path class="atom-3" d="M 128.7 560.7 L 135.1 571.0 Q 135.7 572.1, 136.7 573.9 Q 137.8 575.7, 137.8 575.9 L 137.8 560.7 L 140.4 560.7 L 140.4 580.2 L 137.7 580.2 L 130.9 568.9 Q 130.1 567.6, 129.2 566.1 Q 128.4 564.5, 128.1 564.1 L 128.1 580.2 L 125.6 580.2 L 125.6 560.7 L 128.7 560.7 " fill="#0000FF"/>
<path class="atom-3" d="M 144.1 564.2 L 147.5 564.2 L 147.5 560.6 L 149.1 560.6 L 149.1 564.2 L 152.6 564.2 L 152.6 565.5 L 149.1 565.5 L 149.1 569.2 L 147.5 569.2 L 147.5 565.5 L 144.1 565.5 L 144.1 564.2 " fill="#0000FF"/>
<path class="atom-4" d="M 68.2 530.0 Q 68.2 525.3, 70.5 522.7 Q 72.9 520.0, 77.2 520.0 Q 81.5 520.0, 83.8 522.7 Q 86.2 525.3, 86.2 530.0 Q 86.2 534.7, 83.8 537.4 Q 81.5 540.1, 77.2 540.1 Q 72.9 540.1, 70.5 537.4 Q 68.2 534.7, 68.2 530.0 M 77.2 537.9 Q 80.2 537.9, 81.8 535.9 Q 83.4 533.9, 83.4 530.0 Q 83.4 526.1, 81.8 524.2 Q 80.2 522.2, 77.2 522.2 Q 74.2 522.2, 72.6 524.2 Q 71.0 526.1, 71.0 530.0 Q 71.0 533.9, 72.6 535.9 Q 74.2 537.9, 77.2 537.9 " fill="#FF0000"/>
<path class="atom-4" d="M 88.9 523.2 L 95.6 523.2 L 95.6 524.7 L 88.9 524.7 L 88.9 523.2 " fill="#FF0000"/>
<path class="atom-5" d="M 128.7 629.7 L 135.1 640.0 Q 135.7 641.0, 136.7 642.9 Q 137.8 644.7, 137.8 644.8 L 137.8 629.7 L 140.4 629.7 L 140.4 649.2 L 137.7 649.2 L 130.9 637.9 Q 130.1 636.6, 129.2 635.0 Q 128.4 633.5, 128.1 633.1 L 128.1 649.2 L 125.6 649.2 L 125.6 629.7 L 128.7 629.7 " fill="#0000FF"/>
<path class="atom-7" d="M 194.3 651.0 L 200.7 661.3 Q 201.3 662.3, 202.3 664.2 Q 203.4 666.0, 203.4 666.1 L 203.4 651.0 L 206.0 651.0 L 206.0 670.5 L 203.3 670.5 L 196.5 659.2 Q 195.7 657.9, 194.8 656.4 Q 194.0 654.8, 193.7 654.4 L 193.7 670.5 L 191.2 670.5 L 191.2 651.0 L 194.3 651.0 " fill="#0000FF"/>
<path class="bond-0 atom-0 atom-1" d="M 468.6,655.8 L 492.1,638.2" style="fill:none;fill-rule:evenodd;stroke:#191919;stroke-width:2.0px;stroke-linecap:butt;stroke-linejoin:miter;stroke-opacity:1"/>
<path class="bond-0 atom-0 atom-1" d="M 492.1,638.2 L 515.7,620.7" style="fill:none;fill-rule:evenodd;stroke:#000000;stroke-width:2.0px;stroke-linecap:butt;stroke-linejoin:miter;stroke-opacity:1"/>
<path class="bond-1 atom-1 atom-2" d="M 515.7,620.7 L 507.7,552.2" style="fill:none;fill-rule:evenodd;stroke:#000000;stroke-width:2.0px;stroke-linecap:butt;stroke-linejoin:miter;stroke-opacity:1"/>
<path class="bond-1 atom-1 atom-2" d="M 525.3,613.5 L 518.6,556.9" style="fill:none;fill-rule:evenodd;stroke:#000000;stroke-width:2.0px;stroke-linecap:butt;stroke-linejoin:miter;stroke-opacity:1"/>
<path class="bond-2 atom-2 atom-3" d="M 507.7,552.2 L 530.5,535.2" style="fill:none;fill-rule:evenodd;stroke:#000000;stroke-width:2.0px;stroke-linecap:butt;stroke-linejoin:miter;stroke-opacity:1"/>
<path class="bond-2 atom-2 atom-3" d="M 530.5,535.2 L 553.3,518.2" style="fill:none;fill-rule:evenodd;stroke:#0000FF;stroke-width:2.0px;stroke-linecap:butt;stroke-linejoin:miter;stroke-opacity:1"/>
<path class="bond-3 atom-3 atom-4" d="M 572.7,515.1 L 599.5,526.7" style="fill:none;fill-rule:evenodd;stroke:#0000FF;stroke-width:2.0px;stroke-linecap:butt;stroke-linejoin:miter;stroke-opacity:1"/>
<path class="bond-3 atom-3 atom-4" d="M 599.5,526.7 L 626.3,538.2" style="fill:none;fill-rule:evenodd;stroke:#000000;stroke-width:2.0px;stroke-linecap:butt;stroke-linejoin:miter;stroke-opacity:1"/>
<path class="bond-3 atom-3 atom-4" d="M 568.6,524.6 L 592.7,535.0" style="fill:none;fill-rule:evenodd;stroke:#0000FF;stroke-width:2.0px;stroke-linecap:butt;stroke-linejoin:miter;stroke-opacity:1"/>
<path class="bond-3 atom-3 atom-4" d="M 592.7,535.0 L 616.7,545.4" style="fill:none;fill-rule:evenodd;stroke:#000000;stroke-width:2.0px;stroke-linecap:butt;stroke-linejoin:miter;stroke-opacity:1"/>
<path class="bond-4 atom-4 atom-5" d="M 626.3,538.2 L 649.1,521.2" style="fill:none;fill-rule:evenodd;stroke:#000000;stroke-width:2.0px;stroke-linecap:butt;stroke-linejoin:miter;stroke-opacity:1"/>
<path class="bond-4 atom-4 atom-5" d="M 649.1,521.2 L 672.0,504.2" style="fill:none;fill-rule:evenodd;stroke:#0000FF;stroke-width:2.0px;stroke-linecap:butt;stroke-linejoin:miter;stroke-opacity:1"/>
<path class="bond-5 atom-4 atom-6" d="M 626.3,538.2 L 634.4,606.7" style="fill:none;fill-rule:evenodd;stroke:#000000;stroke-width:2.0px;stroke-linecap:butt;stroke-linejoin:miter;stroke-opacity:1"/>
<path class="bond-6 atom-6 atom-7" d="M 634.4,606.7 L 661.2,618.3" style="fill:none;fill-rule:evenodd;stroke:#000000;stroke-width:2.0px;stroke-linecap:butt;stroke-linejoin:miter;stroke-opacity:1"/>
<path class="bond-6 atom-6 atom-7" d="M 661.2,618.3 L 688.0,629.9" style="fill:none;fill-rule:evenodd;stroke:#0000FF;stroke-width:2.0px;stroke-linecap:butt;stroke-linejoin:miter;stroke-opacity:1"/>
<path class="bond-7 atom-7 atom-8" d="M 717.1,626.0 L 731.0,615.7" style="fill:none;fill-rule:evenodd;stroke:#0000FF;stroke-width:2.0px;stroke-linecap:butt;stroke-linejoin:miter;stroke-opacity:1"/>
<path class="bond-7 atom-7 atom-8" d="M 731.0,615.7 L 744.9,605.4" style="fill:none;fill-rule:evenodd;stroke:#FF0000;stroke-width:2.0px;stroke-linecap:butt;stroke-linejoin:miter;stroke-opacity:1"/>
<path class="bond-7 atom-7 atom-8" d="M 710.9,617.8 L 724.8,607.4" style="fill:none;fill-rule:evenodd;stroke:#0000FF;stroke-width:2.0px;stroke-linecap:butt;stroke-linejoin:miter;stroke-opacity:1"/>
<path class="bond-7 atom-7 atom-8" d="M 724.8,607.4 L 738.7,597.1" style="fill:none;fill-rule:evenodd;stroke:#FF0000;stroke-width:2.0px;stroke-linecap:butt;stroke-linejoin:miter;stroke-opacity:1"/>
<path class="bond-8 atom-7 atom-9" d="M 699.1,646.1 L 701.7,668.2" style="fill:none;fill-rule:evenodd;stroke:#0000FF;stroke-width:2.0px;stroke-linecap:butt;stroke-linejoin:miter;stroke-opacity:1"/>
<path class="bond-8 atom-7 atom-9" d="M 701.7,668.2 L 704.3,690.4" style="fill:none;fill-rule:evenodd;stroke:#FF0000;stroke-width:2.0px;stroke-linecap:butt;stroke-linejoin:miter;stroke-opacity:1"/>
<path class="bond-9 atom-6 atom-10" d="M 634.4,606.7 L 579.0,648.0" style="fill:none;fill-rule:evenodd;stroke:#000000;stroke-width:2.0px;stroke-linecap:butt;stroke-linejoin:miter;stroke-opacity:1"/>
<path class="bond-9 atom-6 atom-10" d="M 623.4,602.0 L 577.7,636.1" style="fill:none;fill-rule:evenodd;stroke:#000000;stroke-width:2.0px;stroke-linecap:butt;stroke-linejoin:miter;stroke-opacity:1"/>
<path class="bond-10 atom-10 atom-1" d="M 579.0,648.0 L 515.7,620.7" style="fill:none;fill-rule:evenodd;stroke:#000000;stroke-width:2.0px;stroke-linecap:butt;stroke-linejoin:miter;stroke-opacity:1"/>
<path d="M 508.1,555.6 L 507.7,552.2 L 508.8,551.3" style="fill:none;stroke:#000000;stroke-width:2.0px;stroke-linecap:butt;stroke-linejoin:miter;stroke-opacity:1;"/>
<path d="M 581.8,645.9 L 579.0,648.0 L 575.9,646.6" style="fill:none;stroke:#000000;stroke-width:2.0px;stroke-linecap:butt;stroke-linejoin:miter;stroke-opacity:1;"/>
<path class="atom-0" d="M 439.0 659.7 L 441.8 656.8 L 438.0 656.0 L 438.6 654.0 L 442.1 655.8 L 441.6 652.0 L 443.7 651.9 L 443.1 655.8 L 446.6 654.1 L 447.3 656.0 L 443.4 656.7 L 446.2 659.7 L 444.5 660.9 L 442.6 657.2 L 440.6 660.9 L 439.0 659.7 " fill="#191919"/>
<path class="atom-0" d="M 448.9 668.6 L 451.6 668.6 L 451.6 671.3 L 448.9 671.3 L 448.9 668.6 M 448.9 659.1 L 451.6 659.1 L 451.6 661.8 L 448.9 661.8 L 448.9 659.1 " fill="#191919"/>
<path class="atom-0" d="M 455.6 669.6 L 459.9 669.6 L 459.9 655.0 L 455.1 656.5 L 454.5 654.8 L 460.5 652.2 L 462.4 652.5 L 462.4 669.6 L 466.3 669.6 L 466.3 671.8 L 455.6 671.8 L 455.6 669.6 " fill="#191919"/>
<path class="atom-3" d="M 558.7 501.2 L 565.1 511.5 Q 565.7 512.5, 566.7 514.4 Q 567.7 516.2, 567.8 516.4 L 567.8 501.2 L 570.4 501.2 L 570.4 520.7 L 567.7 520.7 L 560.8 509.4 Q 560.0 508.1, 559.2 506.6 Q 558.4 505.0, 558.1 504.6 L 558.1 520.7 L 555.6 520.7 L 555.6 501.2 L 558.7 501.2 " fill="#0000FF"/>
<path class="atom-5" d="M 677.3 487.3 L 683.7 497.6 Q 684.4 498.6, 685.4 500.5 Q 686.4 502.3, 686.5 502.4 L 686.5 487.3 L 689.1 487.3 L 689.1 506.8 L 686.4 506.8 L 679.5 495.5 Q 678.7 494.2, 677.8 492.6 Q 677.0 491.1, 676.8 490.7 L 676.8 506.8 L 674.2 506.8 L 674.2 487.3 L 677.3 487.3 " fill="#0000FF"/>
<path class="atom-5" d="M 692.8 487.3 L 695.4 487.3 L 695.4 495.6 L 705.4 495.6 L 705.4 487.3 L 708.1 487.3 L 708.1 506.8 L 705.4 506.8 L 705.4 497.8 L 695.4 497.8 L 695.4 506.8 L 692.8 506.8 L 692.8 487.3 " fill="#0000FF"/>
<path class="atom-5" d="M 711.9 506.1 Q 712.4 504.9, 713.5 504.2 Q 714.6 503.5, 716.2 503.5 Q 718.1 503.5, 719.2 504.6 Q 720.3 505.6, 720.3 507.5 Q 720.3 509.4, 718.9 511.2 Q 717.5 513.0, 714.6 515.1 L 720.5 515.1 L 720.5 516.6 L 711.9 516.6 L 711.9 515.3 Q 714.3 513.6, 715.7 512.4 Q 717.1 511.1, 717.8 509.9 Q 718.5 508.8, 718.5 507.6 Q 718.5 506.4, 717.9 505.7 Q 717.3 505.0, 716.2 505.0 Q 715.2 505.0, 714.5 505.4 Q 713.8 505.8, 713.3 506.8 L 711.9 506.1 " fill="#0000FF"/>
<path class="atom-7" d="M 693.4 624.3 L 699.8 634.6 Q 700.4 635.6, 701.4 637.5 Q 702.5 639.3, 702.5 639.5 L 702.5 624.3 L 705.1 624.3 L 705.1 643.8 L 702.4 643.8 L 695.6 632.5 Q 694.8 631.2, 693.9 629.7 Q 693.1 628.1, 692.8 627.7 L 692.8 643.8 L 690.3 643.8 L 690.3 624.3 L 693.4 624.3 " fill="#0000FF"/>
<path class="atom-7" d="M 708.8 627.8 L 712.2 627.8 L 712.2 624.2 L 713.8 624.2 L 713.8 627.8 L 717.3 627.8 L 717.3 629.1 L 713.8 629.1 L 713.8 632.8 L 712.2 632.8 L 712.2 629.1 L 708.8 629.1 L 708.8 627.8 " fill="#0000FF"/>
<path class="atom-8" d="M 744.1 592.9 Q 744.1 588.2, 746.4 585.6 Q 748.7 583.0, 753.0 583.0 Q 757.4 583.0, 759.7 585.6 Q 762.0 588.2, 762.0 592.9 Q 762.0 597.6, 759.6 600.3 Q 757.3 603.0, 753.0 603.0 Q 748.7 603.0, 746.4 600.3 Q 744.1 597.7, 744.1 592.9 M 753.0 600.8 Q 756.0 600.8, 757.6 598.8 Q 759.2 596.8, 759.2 592.9 Q 759.2 589.1, 757.6 587.1 Q 756.0 585.2, 753.0 585.2 Q 750.0 585.2, 748.4 587.1 Q 746.8 589.0, 746.8 592.9 Q 746.8 596.8, 748.4 598.8 Q 750.0 600.8, 753.0 600.8 " fill="#FF0000"/>
<path class="atom-9" d="M 696.8 702.6 Q 696.8 697.9, 699.1 695.3 Q 701.4 692.7, 705.7 692.7 Q 710.1 692.7, 712.4 695.3 Q 714.7 697.9, 714.7 702.6 Q 714.7 707.4, 712.4 710.1 Q 710.0 712.7, 705.7 712.7 Q 701.4 712.7, 699.1 710.1 Q 696.8 707.4, 696.8 702.6 M 705.7 710.5 Q 708.7 710.5, 710.3 708.5 Q 711.9 706.5, 711.9 702.6 Q 711.9 698.8, 710.3 696.8 Q 708.7 694.9, 705.7 694.9 Q 702.8 694.9, 701.1 696.8 Q 699.5 698.7, 699.5 702.6 Q 699.5 706.6, 701.1 708.5 Q 702.8 710.5, 705.7 710.5 " fill="#FF0000"/>
<path class="atom-9" d="M 717.5 695.9 L 724.2 695.9 L 724.2 697.3 L 717.5 697.3 L 717.5 695.9 " fill="#FF0000"/>
<path class="bond-0 atom-0 atom-1" d="M 301.2,1004.9 L 270.2,1004.9" style="fill:none;fill-rule:evenodd;stroke:#191919;stroke-width:2.0px;stroke-linecap:butt;stroke-linejoin:miter;stroke-opacity:1"/>
<path class="bond-0 atom-0 atom-1" d="M 270.2,1004.9 L 239.1,1004.9" style="fill:none;fill-rule:evenodd;stroke:#000000;stroke-width:2.0px;stroke-linecap:butt;stroke-linejoin:miter;stroke-opacity:1"/>
<path class="bond-1 atom-1 atom-2" d="M 239.1,1004.9 L 198.6,949.1" style="fill:none;fill-rule:evenodd;stroke:#000000;stroke-width:2.0px;stroke-linecap:butt;stroke-linejoin:miter;stroke-opacity:1"/>
<path class="bond-2 atom-2 atom-3" d="M 198.6,949.1 L 176.7,956.2" style="fill:none;fill-rule:evenodd;stroke:#000000;stroke-width:2.0px;stroke-linecap:butt;stroke-linejoin:miter;stroke-opacity:1"/>
<path class="bond-2 atom-2 atom-3" d="M 176.7,956.2 L 154.9,963.3" style="fill:none;fill-rule:evenodd;stroke:#0000FF;stroke-width:2.0px;stroke-linecap:butt;stroke-linejoin:miter;stroke-opacity:1"/>
<path class="bond-2 atom-2 atom-3" d="M 194.7,961.3 L 176.4,967.2" style="fill:none;fill-rule:evenodd;stroke:#000000;stroke-width:2.0px;stroke-linecap:butt;stroke-linejoin:miter;stroke-opacity:1"/>
<path class="bond-2 atom-2 atom-3" d="M 176.4,967.2 L 158.1,973.2" style="fill:none;fill-rule:evenodd;stroke:#0000FF;stroke-width:2.0px;stroke-linecap:butt;stroke-linejoin:miter;stroke-opacity:1"/>
<path class="bond-3 atom-3 atom-4" d="M 123.3,963.4 L 105.9,950.7" style="fill:none;fill-rule:evenodd;stroke:#0000FF;stroke-width:2.0px;stroke-linecap:butt;stroke-linejoin:miter;stroke-opacity:1"/>
<path class="bond-3 atom-3 atom-4" d="M 105.9,950.7 L 88.4,938.1" style="fill:none;fill-rule:evenodd;stroke:#FF0000;stroke-width:2.0px;stroke-linecap:butt;stroke-linejoin:miter;stroke-opacity:1"/>
<path class="bond-4 atom-3 atom-5" d="M 133.0,982.5 L 133.0,1027.4" style="fill:none;fill-rule:evenodd;stroke:#0000FF;stroke-width:2.0px;stroke-linecap:butt;stroke-linejoin:miter;stroke-opacity:1"/>
<path class="bond-5 atom-5 atom-6" d="M 123.3,1046.5 L 100.3,1063.2" style="fill:none;fill-rule:evenodd;stroke:#0000FF;stroke-width:2.0px;stroke-linecap:butt;stroke-linejoin:miter;stroke-opacity:1"/>
<path class="bond-5 atom-5 atom-6" d="M 100.3,1063.2 L 77.2,1080.0" style="fill:none;fill-rule:evenodd;stroke:#000000;stroke-width:2.0px;stroke-linecap:butt;stroke-linejoin:miter;stroke-opacity:1"/>
<path class="bond-6 atom-5 atom-7" d="M 142.7,1042.6 L 188.9,1057.6" style="fill:none;fill-rule:evenodd;stroke:#0000FF;stroke-width:2.0px;stroke-linecap:butt;stroke-linejoin:miter;stroke-opacity:1"/>
<path class="bond-7 atom-7 atom-1" d="M 207.4,1048.7 L 223.3,1026.8" style="fill:none;fill-rule:evenodd;stroke:#0000FF;stroke-width:2.0px;stroke-linecap:butt;stroke-linejoin:miter;stroke-opacity:1"/>
<path class="bond-7 atom-7 atom-1" d="M 223.3,1026.8 L 239.1,1004.9" style="fill:none;fill-rule:evenodd;stroke:#000000;stroke-width:2.0px;stroke-linecap:butt;stroke-linejoin:miter;stroke-opacity:1"/>
<path class="bond-7 atom-7 atom-1" d="M 199.0,1042.6 L 212.7,1023.8" style="fill:none;fill-rule:evenodd;stroke:#0000FF;stroke-width:2.0px;stroke-linecap:butt;stroke-linejoin:miter;stroke-opacity:1"/>
<path class="bond-7 atom-7 atom-1" d="M 212.7,1023.8 L 226.4,1004.9" style="fill:none;fill-rule:evenodd;stroke:#000000;stroke-width:2.0px;stroke-linecap:butt;stroke-linejoin:miter;stroke-opacity:1"/>
<path d="M 200.6,951.9 L 198.6,949.1 L 197.5,949.5" style="fill:none;stroke:#000000;stroke-width:2.0px;stroke-linecap:butt;stroke-linejoin:miter;stroke-opacity:1;"/>
<path class="atom-0" d="M 304.4 1002.8 L 307.3 999.8 L 303.5 999.1 L 304.1 997.1 L 307.6 998.9 L 307.1 995.0 L 309.2 995.0 L 308.6 998.8 L 312.1 997.2 L 312.7 999.1 L 308.9 999.8 L 311.6 1002.7 L 310.0 1003.9 L 308.1 1000.3 L 306.1 1003.9 L 304.4 1002.8 " fill="#191919"/>
<path class="atom-0" d="M 314.4 1011.6 L 317.1 1011.6 L 317.1 1014.4 L 314.4 1014.4 L 314.4 1011.6 M 314.4 1002.2 L 317.1 1002.2 L 317.1 1004.9 L 314.4 1004.9 L 314.4 1002.2 " fill="#191919"/>
<path class="atom-0" d="M 321.1 1012.7 L 325.3 1012.7 L 325.3 998.1 L 320.6 999.5 L 320.0 997.9 L 326.0 995.2 L 327.9 995.6 L 327.9 1012.7 L 331.8 1012.7 L 331.8 1014.9 L 321.1 1014.9 L 321.1 1012.7 " fill="#191919"/>
<path class="atom-3" d="M 128.7 960.7 L 135.1 971.0 Q 135.7 972.1, 136.7 973.9 Q 137.8 975.7, 137.8 975.9 L 137.8 960.7 L 140.4 960.7 L 140.4 980.2 L 137.7 980.2 L 130.9 968.9 Q 130.1 967.6, 129.2 966.1 Q 128.4 964.5, 128.1 964.1 L 128.1 980.2 L 125.6 980.2 L 125.6 960.7 L 128.7 960.7 " fill="#0000FF"/>
<path class="atom-3" d="M 144.1 964.2 L 147.5 964.2 L 147.5 960.6 L 149.1 960.6 L 149.1 964.2 L 152.6 964.2 L 152.6 965.5 L 149.1 965.5 L 149.1 969.2 L 147.5 969.2 L 147.5 965.5 L 144.1 965.5 L 144.1 964.2 " fill="#0000FF"/>
<path class="atom-4" d="M 68.2 930.0 Q 68.2 925.3, 70.5 922.7 Q 72.9 920.0, 77.2 920.0 Q 81.5 920.0, 83.8 922.7 Q 86.2 925.3, 86.2 930.0 Q 86.2 934.7, 83.8 937.4 Q 81.5 940.1, 77.2 940.1 Q 72.9 940.1, 70.5 937.4 Q 68.2 934.7, 68.2 930.0 M 77.2 937.9 Q 80.2 937.9, 81.8 935.9 Q 83.4 933.9, 83.4 930.0 Q 83.4 926.1, 81.8 924.2 Q 80.2 922.2, 77.2 922.2 Q 74.2 922.2, 72.6 924.2 Q 71.0 926.1, 71.0 930.0 Q 71.0 933.9, 72.6 935.9 Q 74.2 937.9, 77.2 937.9 " fill="#FF0000"/>
<path class="atom-4" d="M 88.9 923.2 L 95.6 923.2 L 95.6 924.7 L 88.9 924.7 L 88.9 923.2 " fill="#FF0000"/>
<path class="atom-5" d="M 128.7 1029.7 L 135.1 1040.0 Q 135.7 1041.0, 136.7 1042.9 Q 137.8 1044.7, 137.8 1044.8 L 137.8 1029.7 L 140.4 1029.7 L 140.4 1049.2 L 137.7 1049.2 L 130.9 1037.9 Q 130.1 1036.6, 129.2 1035.0 Q 128.4 1033.5, 128.1 1033.1 L 128.1 1049.2 L 125.6 1049.2 L 125.6 1029.7 L 128.7 1029.7 " fill="#0000FF"/>
<path class="atom-7" d="M 194.3 1051.0 L 200.7 1061.3 Q 201.3 1062.3, 202.3 1064.2 Q 203.4 1066.0, 203.4 1066.1 L 203.4 1051.0 L 206.0 1051.0 L 206.0 1070.5 L 203.3 1070.5 L 196.5 1059.2 Q 195.7 1057.9, 194.8 1056.4 Q 194.0 1054.8, 193.7 1054.4 L 193.7 1070.5 L 191.2 1070.5 L 191.2 1051.0 L 194.3 1051.0 " fill="#0000FF"/>
<path class="bond-0 atom-0 atom-1" d="M 541.6,1069.0 L 565.4,1051.7" style="fill:none;fill-rule:evenodd;stroke:#191919;stroke-width:2.0px;stroke-linecap:butt;stroke-linejoin:miter;stroke-opacity:1"/>
<path class="bond-0 atom-0 atom-1" d="M 565.4,1051.7 L 589.2,1034.4" style="fill:none;fill-rule:evenodd;stroke:#000000;stroke-width:2.0px;stroke-linecap:butt;stroke-linejoin:miter;stroke-opacity:1"/>
<path class="bond-1 atom-1 atom-2" d="M 589.2,1034.4 L 617.2,1043.5" style="fill:none;fill-rule:evenodd;stroke:#000000;stroke-width:2.0px;stroke-linecap:butt;stroke-linejoin:miter;stroke-opacity:1"/>
<path class="bond-1 atom-1 atom-2" d="M 617.2,1043.5 L 645.1,1052.6" style="fill:none;fill-rule:evenodd;stroke:#0000FF;stroke-width:2.0px;stroke-linecap:butt;stroke-linejoin:miter;stroke-opacity:1"/>
<path class="bond-1 atom-1 atom-2" d="M 599.5,1026.9 L 623.9,1034.8" style="fill:none;fill-rule:evenodd;stroke:#000000;stroke-width:2.0px;stroke-linecap:butt;stroke-linejoin:miter;stroke-opacity:1"/>
<path class="bond-1 atom-1 atom-2" d="M 623.9,1034.8 L 648.3,1042.7" style="fill:none;fill-rule:evenodd;stroke:#0000FF;stroke-width:2.0px;stroke-linecap:butt;stroke-linejoin:miter;stroke-opacity:1"/>
<path class="bond-2 atom-2 atom-3" d="M 663.5,1043.7 L 674.9,1028.0" style="fill:none;fill-rule:evenodd;stroke:#0000FF;stroke-width:2.0px;stroke-linecap:butt;stroke-linejoin:miter;stroke-opacity:1"/>
<path class="bond-2 atom-2 atom-3" d="M 674.9,1028.0 L 686.3,1012.4" style="fill:none;fill-rule:evenodd;stroke:#FF0000;stroke-width:2.0px;stroke-linecap:butt;stroke-linejoin:miter;stroke-opacity:1"/>
<path class="bond-3 atom-3 atom-4" d="M 686.5,987.8 L 675.0,972.0" style="fill:none;fill-rule:evenodd;stroke:#FF0000;stroke-width:2.0px;stroke-linecap:butt;stroke-linejoin:miter;stroke-opacity:1"/>
<path class="bond-3 atom-3 atom-4" d="M 675.0,972.0 L 663.5,956.2" style="fill:none;fill-rule:evenodd;stroke:#0000FF;stroke-width:2.0px;stroke-linecap:butt;stroke-linejoin:miter;stroke-opacity:1"/>
<path class="bond-4 atom-4 atom-5" d="M 645.1,947.3 L 617.2,956.3" style="fill:none;fill-rule:evenodd;stroke:#0000FF;stroke-width:2.0px;stroke-linecap:butt;stroke-linejoin:miter;stroke-opacity:1"/>
<path class="bond-4 atom-4 atom-5" d="M 617.2,956.3 L 589.2,965.4" style="fill:none;fill-rule:evenodd;stroke:#000000;stroke-width:2.0px;stroke-linecap:butt;stroke-linejoin:miter;stroke-opacity:1"/>
<path class="bond-4 atom-4 atom-5" d="M 648.3,957.1 L 623.9,965.0" style="fill:none;fill-rule:evenodd;stroke:#0000FF;stroke-width:2.0px;stroke-linecap:butt;stroke-linejoin:miter;stroke-opacity:1"/>
<path class="bond-4 atom-4 atom-5" d="M 623.9,965.0 L 599.5,972.9" style="fill:none;fill-rule:evenodd;stroke:#000000;stroke-width:2.0px;stroke-linecap:butt;stroke-linejoin:miter;stroke-opacity:1"/>
<path class="bond-5 atom-5 atom-6" d="M 589.2,965.4 L 566.1,948.7" style="fill:none;fill-rule:evenodd;stroke:#000000;stroke-width:2.0px;stroke-linecap:butt;stroke-linejoin:miter;stroke-opacity:1"/>
<path class="bond-5 atom-5 atom-6" d="M 566.1,948.7 L 543.1,931.9" style="fill:none;fill-rule:evenodd;stroke:#0000FF;stroke-width:2.0px;stroke-linecap:butt;stroke-linejoin:miter;stroke-opacity:1"/>
<path class="bond-6 atom-5 atom-1" d="M 589.2,965.4 L 589.2,1034.4" style="fill:none;fill-rule:evenodd;stroke:#000000;stroke-width:2.0px;stroke-linecap:butt;stroke-linejoin:miter;stroke-opacity:1"/>
<path class="atom-0" d="M 512.0 1072.8 L 514.8 1069.8 L 511.0 1069.1 L 511.6 1067.1 L 515.1 1068.9 L 514.6 1065.0 L 516.7 1065.0 L 516.1 1068.9 L 519.7 1067.2 L 520.3 1069.1 L 516.4 1069.8 L 519.2 1072.7 L 517.5 1074.0 L 515.6 1070.3 L 513.6 1074.0 L 512.0 1072.8 " fill="#191919"/>
<path class="atom-0" d="M 521.9 1081.7 L 524.6 1081.7 L 524.6 1084.4 L 521.9 1084.4 L 521.9 1081.7 M 521.9 1072.2 L 524.6 1072.2 L 524.6 1074.9 L 521.9 1074.9 L 521.9 1072.2 " fill="#191919"/>
<path class="atom-0" d="M 528.6 1082.7 L 532.9 1082.7 L 532.9 1068.1 L 528.1 1069.5 L 527.5 1067.9 L 533.5 1065.2 L 535.4 1065.6 L 535.4 1082.7 L 539.3 1082.7 L 539.3 1084.9 L 528.6 1084.9 L 528.6 1082.7 " fill="#191919"/>
<path class="atom-2" d="M 650.5 1046.0 L 656.9 1056.3 Q 657.5 1057.3, 658.5 1059.2 Q 659.6 1061.0, 659.6 1061.1 L 659.6 1046.0 L 662.2 1046.0 L 662.2 1065.5 L 659.5 1065.5 L 652.7 1054.2 Q 651.9 1052.9, 651.0 1051.3 Q 650.2 1049.8, 649.9 1049.3 L 649.9 1065.5 L 647.4 1065.5 L 647.4 1046.0 L 650.5 1046.0 " fill="#0000FF"/>
<path class="atom-3" d="M 686.4 1000.0 Q 686.4 995.3, 688.7 992.7 Q 691.0 990.0, 695.3 990.0 Q 699.7 990.0, 702.0 992.7 Q 704.3 995.3, 704.3 1000.0 Q 704.3 1004.7, 702.0 1007.4 Q 699.6 1010.1, 695.3 1010.1 Q 691.0 1010.1, 688.7 1007.4 Q 686.4 1004.7, 686.4 1000.0 M 695.3 1007.9 Q 698.3 1007.9, 699.9 1005.9 Q 701.5 1003.9, 701.5 1000.0 Q 701.5 996.1, 699.9 994.2 Q 698.3 992.2, 695.3 992.2 Q 692.4 992.2, 690.7 994.2 Q 689.1 996.1, 689.1 1000.0 Q 689.1 1003.9, 690.7 1005.9 Q 692.4 1007.9, 695.3 1007.9 " fill="#FF0000"/>
<path class="atom-4" d="M 650.5 934.3 L 656.9 944.7 Q 657.5 945.7, 658.5 947.6 Q 659.6 949.4, 659.6 949.5 L 659.6 934.3 L 662.2 934.3 L 662.2 953.9 L 659.5 953.9 L 652.7 942.6 Q 651.9 941.2, 651.0 939.7 Q 650.2 938.2, 649.9 937.7 L 649.9 953.9 L 647.4 953.9 L 647.4 934.3 L 650.5 934.3 " fill="#0000FF"/>
<path class="atom-6" d="M 495.7 915.1 L 498.3 915.1 L 498.3 923.4 L 508.3 923.4 L 508.3 915.1 L 511.0 915.1 L 511.0 934.7 L 508.3 934.7 L 508.3 925.6 L 498.3 925.6 L 498.3 934.7 L 495.7 934.7 L 495.7 915.1 " fill="#0000FF"/>
<path class="atom-6" d="M 514.8 934.0 Q 515.3 932.7, 516.4 932.1 Q 517.5 931.4, 519.1 931.4 Q 521.0 931.4, 522.1 932.4 Q 523.2 933.5, 523.2 935.4 Q 523.2 937.3, 521.8 939.1 Q 520.4 940.9, 517.5 943.0 L 523.5 943.0 L 523.5 944.4 L 514.8 944.4 L 514.8 943.2 Q 517.2 941.5, 518.6 940.2 Q 520.0 938.9, 520.7 937.8 Q 521.4 936.6, 521.4 935.5 Q 521.4 934.2, 520.8 933.5 Q 520.2 932.8, 519.1 932.8 Q 518.1 932.8, 517.4 933.3 Q 516.7 933.7, 516.2 934.6 L 514.8 934.0 " fill="#0000FF"/>
<path class="atom-6" d="M 529.1 915.1 L 535.5 925.5 Q 536.1 926.5, 537.1 928.3 Q 538.2 930.2, 538.2 930.3 L 538.2 915.1 L 540.8 915.1 L 540.8 934.7 L 538.1 934.7 L 531.3 923.3 Q 530.5 922.0, 529.6 920.5 Q 528.8 919.0, 528.5 918.5 L 528.5 934.7 L 526.0 934.7 L 526.0 915.1 L 529.1 915.1 " fill="#0000FF"/>
</svg>